Coordinates
version=1
nRows=24
nColumns=24
inDegrees=yes

Units are S.I. units (second, meters, Newtons, ...)
Angles are in degrees.

endheader
time	pelvis_tilt	pelvis_list	pelvis_rotation	pelvis_tx	pelvis_ty	pelvis_tz	hip_flexion_r	hip_adduction_r	hip_rotation_r	knee_angle_r	ankle_angle_r	subtalar_angle_r	mtp_angle_r	hip_flexion_l	hip_adduction_l	hip_rotation_l	knee_angle_l	ankle_angle_l	subtalar_angle_l	mtp_angle_l	lumbar_extension	lumbar_bending	lumbar_rotation
      3.26500000	     25.93677383	      1.72538395	      1.04429946	      0.67609840	      1.02378492	      0.00333071	    -29.41542407	     -4.54808656	     -9.75861112	    -39.05407850	     -0.04176631	     -7.61193067	     50.17014748	     -7.88098371	      2.92937308	     -2.10027129	    -21.14727640	      6.11668709	     -5.42976594	      3.35492955	    -41.29011953	     -3.09367804	     -0.79355574
      3.27000000	     25.90843156	      1.80016762	      0.84578101	      0.68112713	      1.02425073	      0.00285923	    -28.53457120	     -4.91522247	     -9.55599962	    -40.55930021	     -0.81495802	     -8.12675154	     50.17572355	     -8.23191130	      3.07227655	     -2.27974137	    -21.06390896	      6.45367787	     -5.32121268	      3.34343148	    -41.20540627	     -3.30148541	     -0.73843014
      3.27500000	     25.89946286	      1.85632785	      0.64662780	      0.68612299	      1.02477102	      0.00242583	    -27.67651109	     -5.24619266	     -9.32986471	    -41.99681342	     -1.47689001	     -8.66108895	     50.17208933	     -8.62444659	      3.19319238	     -2.46916542	    -20.93643506	      6.77851097	     -5.19603070	      3.32203085	    -41.14027074	     -3.49315749	     -0.67163242
      3.28000000	     25.90520693	      1.91629597	      0.44748735	      0.69107050	      1.02531824	      0.00199283	    -26.83477481	     -5.56868674	     -9.09910258	    -43.38034687	     -1.98477278	     -9.20488170	     50.12753858	     -9.04940792	      3.32343688	     -2.63647452	    -20.76661713	      7.04967905	     -5.08048801	      3.30753369	    -41.09377730	     -3.68326839	     -0.60831930
      3.28500000	     25.90589460	      1.93351213	      0.24917662	      0.69595089	      1.02587602	      0.00161577	    -25.97839157	     -5.82783271	     -8.83320595	    -44.70701140	     -2.39207106	     -9.76548088	     50.04440663	     -9.46277948	      3.40372511	     -2.83088437	    -20.60422080	      7.33963479	     -4.95434345	      3.28986472	    -41.04509909	     -3.83810092	     -0.51826875
      3.29000000	     25.90739580	      1.94539602	      0.05906535	      0.70080630	      1.02645974	      0.00123543	    -25.12980063	     -6.06604123	     -8.57467523	    -45.96648958	     -2.67746209	    -10.30567256	     49.92750586	     -9.88596279	      3.48048937	     -3.01252841	    -20.41718563	      7.59630337	     -4.83093715	      3.27171999	    -40.99767064	     -3.97723853	     -0.43940624
      3.29500000	     25.92514767	      1.92420893	     -0.12340424	      0.70559770	      1.02706844	      0.00087022	    -24.29928332	     -6.25115386	     -8.30398124	    -47.15817745	     -2.86209680	    -10.84205799	     49.76821322	    -10.32419718	      3.52253764	     -3.18995620	    -20.22993060	      7.85714545	     -4.71009002	      3.25083435	    -40.97119675	     -4.08136301	     -0.33730925
      3.30000000	     25.96212990	      1.91632217	     -0.28241706	      0.71035635	      1.02770945	      0.00048510	    -23.50195833	     -6.43621859	     -8.08620065	    -48.28248961	     -2.94979908	    -11.33940896	     49.61698606	    -10.77537942	      3.57762778	     -3.35569061	    -20.05440213	      8.10666127	     -4.62230265	      3.24122201	    -40.96760566	     -4.18172093	     -0.27532575
      3.30500000	     25.94664486	      1.79168370	     -0.45288141	      0.71503582	      1.02832305	      0.00018003	    -22.62873616	     -6.47008332	     -7.75806975	    -49.34194504	     -2.99506980	    -11.85911787	     49.25755691	    -11.16690636	      3.50699207	     -3.54266218	    -19.88092648	      8.40535075	     -4.45758734	      3.18639504	    -40.91188804	     -4.18621557	     -0.08045585
      3.31000000	     26.00812859	      1.78298757	     -0.58955963	      0.71975383	      1.02901551	     -0.00020769	    -21.88286709	     -6.62511332	     -7.57713272	    -50.31879621	     -2.89326030	    -12.29160590	     49.08072724	    -11.66373261	      3.56805924	     -3.64516362	    -19.65655509	      8.58705306	     -4.40948499	      3.16498064	    -40.94034467	     -4.26659168	     -0.06073107
      3.31500000	     25.97967311	      1.61853245	     -0.72909065	      0.72438735	      1.02963610	     -0.00051109	    -21.01397649	     -6.58125327	     -7.27496537	    -51.23550353	     -2.82834632	    -12.71547434	     48.46675531	    -12.03845391	      3.45226793	     -3.82280674	    -19.48569750	      8.90837479	     -4.24100224	      3.06510506	    -40.87657168	     -4.21239865	      0.11222507
      3.32000000	     25.99091861	      1.57274062	     -0.84644304	      0.72902589	      1.03026676	     -0.00086987	    -20.20828830	     -6.67000927	     -7.10688833	    -52.11851221	     -2.54721953	    -12.94221258	     46.60938203	    -12.46440061	      3.46709649	     -3.91793974	    -19.28884120	      9.16083917	     -4.06645638	      2.62275191	    -40.85858232	     -4.24822923	      0.17867805
      3.32500000	     26.07132930	      1.48941811	     -0.94956774	      0.73363770	      1.03100150	     -0.00127968	    -19.51126814	     -6.70602892	     -6.94362770	    -52.86871000	     -2.31060124	    -13.25958065	     46.55277339	    -12.98426324	      3.46027941	     -3.96186449	    -19.04730892	      9.29010470	     -4.16657188	      2.60603320	    -40.91669707	     -4.23247632	      0.24987881
      3.33000000	     26.09285192	      1.39213044	     -1.05044334	      0.73824014	      1.03166211	     -0.00164733	    -18.74595988	     -6.71680448	     -6.78306439	    -53.57078028	     -2.09950200	    -13.56860766	     46.45406025	    -13.43163236	      3.42945304	     -4.03303854	    -18.82456144	      9.46600395	     -4.14546549	      2.59812143	    -40.91362300	     -4.20604508	      0.33365693
      3.33500000	     26.06051617	      1.27521257	     -1.13910975	      0.74281986	      1.03225431	     -0.00203184	    -17.92289922	     -6.69854962	     -6.63510845	    -54.21919504	     -1.88836975	    -13.81730005	     46.27057337	    -13.81145316	      3.37452741	     -4.09665887	    -18.61652128	      9.65004693	     -4.08327737	      2.57657212	    -40.85670672	     -4.15047689	      0.45298573
      3.34000000	     26.13415739	      1.18074508	     -1.14118075	      0.74741933	      1.03295863	     -0.00253915	    -17.28238462	     -6.68121884	     -6.62020632	    -54.73684790	     -1.59773629	    -14.00158661	     46.21616790	    -14.31518487	      3.33283684	     -4.04397179	    -18.39361453	      9.85479341	     -4.08395132	      2.58302980	    -40.91555466	     -4.05833573	      0.46305167
      3.34500000	     26.08398274	      1.06946759	     -1.25406814	      0.75195240	      1.03350459	     -0.00281713	    -16.44464782	     -6.65329561	     -6.45481931	    -55.27270750	     -1.33407367	    -14.16074242	     45.96535652	    -14.67752802	      3.28548736	     -4.15754205	    -18.17505542	      9.99724483	     -4.03185478	      2.54646592	    -40.84676639	     -4.02678253	      0.56807348
      3.35000000	     26.14487970	      0.97198078	     -1.23263952	      0.75653196	      1.03418370	     -0.00330737	    -15.81961260	     -6.61475146	     -6.48473363	    -55.65048601	     -1.02354118	    -14.29244371	     45.89949142	    -15.17013521	      3.23147817	     -4.09347217	    -17.94263773	     10.18706076	     -4.02725317	      2.54943965	    -40.89836589	     -3.91851968	      0.55785334
      3.35500000	     26.04803495	      0.87875989	     -1.24443063	      0.76106410	      1.03463292	     -0.00370727	    -14.98160443	     -6.57412197	     -6.45724748	    -56.06321914	     -0.51540193	    -14.12649707	     43.78270482	    -15.46167306	      3.17469527	     -4.11621223	    -17.75830626	     10.40129526	     -3.91037185	      2.12756909	    -40.78894725	     -3.83514683	      0.57019216
      3.36000000	     26.11583994	      0.78597020	     -1.23955722	      0.76562817	      1.03529469	     -0.00415593	    -14.38141689	     -6.53560624	     -6.48607454	    -56.31405986	     -0.25067449	    -14.20798152	     43.77795026	    -15.97915330	      3.13104102	     -4.06605035	    -17.48921174	     10.57023369	     -3.93099346	      2.13368462	    -40.85072914	     -3.73908378	      0.57501743
      3.36500000	     26.12694768	      0.70120208	     -1.26031550	      0.77023026	      1.03586336	     -0.00452999	    -13.72275640	     -6.50913009	     -6.50522914	    -56.52206676	      0.10712693	    -14.19509661	     43.73723780	    -16.43451912	      3.09090794	     -4.11719467	    -17.22187494	     10.70664860	     -3.92211136	      2.12352846	    -40.84733502	     -3.66765545	      0.58338982
      3.37000000	     26.14607021	      0.61571152	     -1.22880983	      0.77476474	      1.03643536	     -0.00496206	    -13.09523401	     -6.45821573	     -6.57307346	    -56.65387335	      0.38981756	    -14.21298090	     43.71401361	    -16.89402231	      3.03966247	     -4.03887792	    -16.95453827	     10.84577463	     -3.88080434	      2.12610898	    -40.86535485	     -3.56350379	      0.57519303
      3.37500000	     26.11685790	      0.54561763	     -1.22027041	      0.77932776	      1.03691560	     -0.00535317	    -12.41773554	     -6.43617318	     -6.63529852	    -56.75022735	      0.78856542	    -13.97587579	     43.54247347	    -17.29824039	      3.00179312	     -4.05603842	    -16.69422189	     10.99837103	     -3.80153797	      2.08672779	    -40.82984017	     -3.48551788	      0.54725655
      3.38000000	     26.12930059	      0.46651301	     -1.16440658	      0.78389169	      1.03745402	     -0.00577232	    -11.82779968	     -6.38087146	     -6.76338495	    -56.73815498	      1.07295325	    -14.00308439	     43.49470723	    -17.76013018	      2.94416610	     -3.99312767	    -16.40798192	     11.13004459	     -3.78203733	      2.08331866	    -40.84055716	     -3.37327150	      0.51584370
